<svg xmlns="http://www.w3.org/2000/svg" viewBox="0 0 50 60">
  <defs>
    <style>.inner{fill:#fff;}.outer{fill:blue;}</style>
  </defs>
  <g id="triangle">
    <path class="inner" d="M46.93,57c-6.68-1.81-14.19-2.75-21.93-2.75s-15.24,.95-21.93,2.75C6.48,48.11,17.12,23.2,25,5.02c7.88,18.18,18.52,43.09,21.93,51.98Z" />
    <path class="outer" d="M25,10.06c6.67,15.44,14.71,34.27,18.66,44.1-5.84-1.25-12.17-1.91-18.66-1.91s-12.81,.65-18.66,1.9c3.95-9.82,11.99-28.65,18.66-44.1m0-10.06S-1.09,60,.04,60h.01c7.49-2.5,16.22-3.75,24.95-3.75s17.47,1.25,24.95,3.75h.01c1.13,0-24.96-60-24.96-60h0Z" />
  </g>
</svg>
